<svg width="120" height="25" viewBox="0 0 120 25" fill="none" xmlns="http://www.w3.org/2000/svg">
<g id="Group 44">
<path id="Vector" fill-rule="evenodd" clip-rule="evenodd" d="M22.1075 0C23.7921 0 25.1598 1.36865 25.1598 3.05439V21.9456C25.1598 23.6313 23.7921 25 22.1075 25H3.2294C1.54483 25 0.177124 23.6313 0.177124 21.9456V3.05439C0.177124 1.36865 1.54478 0 3.2294 0L22.1075 0ZM12.6685 3.95508C10.3494 3.95508 10.0586 3.96489 9.14785 4.00649C8.23896 4.048 7.61825 4.19243 7.07507 4.40371C6.51355 4.62207 6.03736 4.91426 5.56265 5.38926C5.08793 5.86431 4.79594 6.34087 4.57773 6.90273C4.36665 7.44629 4.22232 8.06743 4.18079 8.97695C4.13927 9.88833 4.12946 10.1793 4.12946 12.5C4.12946 14.8207 4.13927 15.1117 4.18079 16.023C4.22232 16.9326 4.36665 17.5537 4.57773 18.0973C4.79594 18.6591 5.08793 19.1357 5.56265 19.6107C6.03736 20.0858 6.51355 20.378 7.07507 20.5963C7.61825 20.8076 8.23896 20.952 9.14785 20.9935C10.0586 21.0351 10.3494 21.0449 12.6685 21.0449C14.9875 21.0449 15.2783 21.0351 16.1891 20.9935C17.098 20.952 17.7187 20.8076 18.2618 20.5963C18.8233 20.378 19.2996 20.0858 19.7743 19.6107C20.249 19.1357 20.541 18.6591 20.7592 18.0973C20.9703 17.5537 21.1146 16.9326 21.1561 16.023C21.1976 15.1117 21.2075 14.8207 21.2075 12.5C21.2075 10.1793 21.1976 9.88833 21.1561 8.97695C21.1146 8.06743 20.9703 7.44629 20.7592 6.90273C20.541 6.34087 20.249 5.86431 19.7743 5.38926C19.2996 4.91426 18.8233 4.62207 18.2618 4.40371C17.7187 4.19243 17.098 4.048 16.1891 4.00649C15.2783 3.96489 14.9875 3.95508 12.6685 3.95508ZM12.6685 5.49473C14.9485 5.49473 15.2185 5.50342 16.1189 5.54453C16.9515 5.58257 17.4036 5.72178 17.7045 5.83872C18.1031 5.99375 18.3875 6.17895 18.6864 6.47793C18.9852 6.77695 19.1702 7.06162 19.3251 7.46045C19.442 7.76157 19.5811 8.21401 19.6191 9.04712C19.6602 9.94814 19.6689 10.2184 19.6689 12.5C19.6689 14.7816 19.6602 15.0519 19.6191 15.9529C19.5811 16.786 19.442 17.2384 19.3251 17.5396C19.1702 17.9384 18.9852 18.223 18.6864 18.5221C18.3875 18.8211 18.1031 19.0063 17.7045 19.1613C17.4036 19.2783 16.9515 19.4175 16.1189 19.4555C15.2187 19.4966 14.9486 19.5053 12.6685 19.5053C10.3883 19.5053 10.1183 19.4966 9.21797 19.4555C8.38544 19.4175 7.93331 19.2783 7.6324 19.1613C7.2338 19.0063 6.94938 18.8211 6.65056 18.5221C6.35175 18.223 6.16667 17.9384 6.0118 17.5396C5.89489 17.2384 5.75577 16.786 5.71776 15.9529C5.67668 15.0519 5.66799 14.7816 5.66799 12.5C5.66799 10.2184 5.67668 9.94814 5.71776 9.04712C5.75577 8.21401 5.89489 7.76157 6.0118 7.46045C6.16667 7.06162 6.35175 6.77695 6.65056 6.47793C6.94938 6.17895 7.2338 5.99375 7.6324 5.83872C7.93331 5.72178 8.38544 5.58257 9.21797 5.54453C10.1184 5.50342 10.3884 5.49473 12.6685 5.49473ZM12.6685 8.11206C10.2467 8.11206 8.28356 10.0766 8.28356 12.5C8.28356 14.9234 10.2467 16.8879 12.6685 16.8879C15.0902 16.8879 17.0534 14.9234 17.0534 12.5C17.0534 10.0766 15.0902 8.11206 12.6685 8.11206ZM12.6685 15.3483C11.0965 15.3483 9.82214 14.0731 9.82214 12.5C9.82214 10.9269 11.0965 9.65171 12.6685 9.65171C14.2405 9.65171 15.5148 10.9269 15.5148 12.5C15.5148 14.0731 14.2405 15.3483 12.6685 15.3483ZM18.2513 7.93872C18.2513 8.50503 17.7925 8.96406 17.2266 8.96406C16.6607 8.96406 16.2019 8.50503 16.2019 7.93872C16.2019 7.37241 16.6607 6.91333 17.2266 6.91333C17.7925 6.91333 18.2513 7.37241 18.2513 7.93872Z" fill="#979797"/>
<path id="Vector_2" d="M52.6219 0H34.6718C33.7393 0 32.8449 0.370722 32.1854 1.03061C31.526 1.69052 31.1555 2.58552 31.1555 3.51875V21.4812C31.1555 22.4145 31.526 23.3095 32.1854 23.9694C32.8449 24.6292 33.7393 25 34.6718 25H42.8412V15.875H39.7527V12.3156H42.8412V9.69376C42.8412 8.20782 43.2518 7.05313 44.0731 6.23282C44.8944 5.41094 46.0077 4.99844 47.4145 4.99844C48.8229 4.99844 49.7348 5.05313 50.1517 5.15626V8.32501H48.2749C47.5972 8.32501 47.135 8.46876 46.8868 8.75626C46.6401 9.04219 46.5167 9.47344 46.5167 10.0469V12.3156H50.0346L49.5662 15.875H46.5167V25H52.6219C53.5545 25 54.4489 24.6292 55.1083 23.9694C55.7678 23.3095 56.1382 22.4145 56.1382 21.4812V3.51875C56.1382 2.58552 55.7678 1.69052 55.1083 1.03061C54.4489 0.370722 53.5545 0 52.6219 0Z" fill="#979797"/>
<path id="Dark_Blue" d="M84.9931 25H66.2561C64.5323 25 63.1333 23.6 63.1333 21.875V3.125C63.1333 1.4 64.5323 0 66.2561 0H84.9931C86.7169 0 88.116 1.4 88.116 3.125V21.875C88.116 23.6 86.7169 25 84.9931 25ZM72.7266 18.85C78.6163 18.85 81.8391 13.9625 81.8391 9.73125C81.8391 9.59375 81.8391 9.45625 81.8328 9.31875C82.4574 8.86875 83.0008 8.3 83.4317 7.65625C82.8571 7.9125 82.2388 8.08125 81.5892 8.1625C82.2513 7.76875 82.7572 7.1375 83.0008 6.3875C82.3824 6.75625 81.6954 7.01875 80.9647 7.1625C80.3776 6.5375 79.5469 6.15 78.6288 6.15C76.8613 6.15 75.4248 7.5875 75.4248 9.35625C75.4248 9.60625 75.456 9.85 75.506 10.0875C72.8453 9.95625 70.4845 8.675 68.9043 6.7375C68.6295 7.2125 68.4733 7.7625 68.4733 8.35C68.4733 9.4625 69.0417 10.4438 69.8974 11.0188C69.3727 11 68.8793 10.8562 68.4484 10.6187V10.6625C68.4484 12.2125 69.5538 13.5125 71.0153 13.8063C70.7468 13.8813 70.4657 13.9187 70.1722 13.9187C69.9661 13.9187 69.7662 13.9 69.5726 13.8625C69.9786 15.1375 71.1652 16.0625 72.5643 16.0875C71.465 16.95 70.0847 17.4625 68.5858 17.4625C68.3297 17.4625 68.0736 17.45 67.8238 17.4187C69.2353 18.3188 70.9216 18.85 72.7266 18.85Z" fill="#979797"/>
<path id="Vector_3" fill-rule="evenodd" clip-rule="evenodd" d="M116.042 0C117.727 0 119.094 1.36865 119.094 3.05439V21.9456C119.094 23.6313 117.727 25 116.042 25H97.1641C95.4795 25 94.1118 23.6313 94.1118 21.9456V3.05439C94.1118 1.36865 95.4795 0 97.1641 0H116.042V0ZM115.019 8.57568C114.817 7.81939 114.222 7.22378 113.466 7.02168C112.096 6.6543 106.603 6.6543 106.603 6.6543C106.603 6.6543 101.11 6.6543 99.7401 7.02168C98.9845 7.22378 98.3892 7.81939 98.1872 8.57568C97.8202 9.94653 97.8202 12.8067 97.8202 12.8067C97.8202 12.8067 97.8202 15.6669 98.1872 17.0376C98.3892 17.7939 98.9845 18.3896 99.7401 18.5917C101.11 18.959 106.603 18.959 106.603 18.959C106.603 18.959 112.096 18.959 113.466 18.5917C114.222 18.3896 114.817 17.7939 115.019 17.0376C115.386 15.6669 115.386 12.8067 115.386 12.8067C115.386 12.8067 115.386 9.94653 115.019 8.57568ZM104.846 15.4435V10.17L109.41 12.8067L104.846 15.4435Z" fill="#979797"/>
</g>
</svg>
